<?xml version="1.0" encoding="iso-8859-1"?>
<!-- Generator: Adobe Illustrator 19.0.0, SVG Export Plug-In . SVG Version: 6.00 Build 0)  -->
<svg version="1.1" id="Layer_1" xmlns="http://www.w3.org/2000/svg" xmlns:xlink="http://www.w3.org/1999/xlink" x="0px" y="0px"
	 viewBox="0 0 512 512" style="enable-background:new 0 0 512 512;" xml:space="preserve">
<g>
	<g>
		<path d="M408.366,206.717l-24.104-96.429c-5.587-22.337-25.565-37.94-48.599-37.94H109.555c-23.032,0-43.011,15.604-48.598,37.94
			l-24.429,97.725C15.521,213.97,0,233.11,0,256v100.174c0,9.223,7.479,16.696,16.696,16.696h16.696
			c0,36.826,29.956,66.783,66.783,66.783c36.826,0,66.783-29.956,66.783-66.783h178.087c0,36.826,29.956,66.783,66.783,66.783
			c36.826,0,66.783-29.956,66.783-66.783h16.696c9.217,0,16.696-7.473,16.696-16.696v-33.391
			C512,262.823,466.593,213.318,408.366,206.717z M100.174,406.261c-18.413,0-33.391-14.978-33.391-33.391
			s14.978-33.391,33.391-33.391c18.413,0,33.391,14.978,33.391,33.391S118.587,406.261,100.174,406.261z M71.467,205.913
			l21.88-87.527c1.859-7.445,8.533-12.646,16.207-12.646h96.358v100.174H71.467z M222.609,306.087h-33.391
			c-9.22,0-16.696-7.475-16.696-16.696s7.475-16.696,16.696-16.696h33.391c9.22,0,16.696,7.475,16.696,16.696
			S231.829,306.087,222.609,306.087z M239.304,205.913V105.739h96.358c7.674,0,14.348,5.201,16.207,12.646l21.88,87.527H239.304z
			 M411.826,406.261c-18.413,0-33.391-14.978-33.391-33.391s14.978-33.391,33.391-33.391c18.413,0,33.391,14.978,33.391,33.391
			S430.239,406.261,411.826,406.261z"/>
	</g>
</g>
<g>
</g>
<g>
</g>
<g>
</g>
<g>
</g>
<g>
</g>
<g>
</g>
<g>
</g>
<g>
</g>
<g>
</g>
<g>
</g>
<g>
</g>
<g>
</g>
<g>
</g>
<g>
</g>
<g>
</g>
</svg>
