<?xml version="1.0" encoding="iso-8859-1"?>
<!-- Generator: Adobe Illustrator 16.0.0, SVG Export Plug-In . SVG Version: 6.00 Build 0)  -->
<!DOCTYPE svg PUBLIC "-//W3C//DTD SVG 1.1//EN" "http://www.w3.org/Graphics/SVG/1.1/DTD/svg11.dtd">
<svg version="1.1" id="Capa_1" xmlns="http://www.w3.org/2000/svg" xmlns:xlink="http://www.w3.org/1999/xlink" x="0px" y="0px"
	 width="495.391px" height="495.391px" viewBox="0 0 495.391 495.391" style="enable-background:new 0 0 495.391 495.391;"
	 xml:space="preserve">
<g>
	<g>
		<g>
			<path d="M487.81,142.25C352.217,15.932,145.911,13.799,7.926,137.193c-9.784,8.771-10.633,23.838-1.861,33.622
				c8.775,9.797,23.839,10.664,33.622,1.875c119.48-106.946,298.184-105.034,415.676,4.403c4.581,4.285,10.4,6.388,16.208,6.388
				c6.388,0,12.748-2.542,17.441-7.581C497.965,166.279,497.43,151.217,487.81,142.25z"/>
			<path d="M247.704,160.674c-124.538,0-226.817,95.301-237.903,216.934c-0.509,5.579,1.353,11.122,5.121,15.244
				c3.764,4.146,9.112,6.522,14.723,6.522h152.222c0-20.705,9.942-40.108,26.413-52.437L222.135,200.7
				c1.239-13.256,12.23-23.267,25.537-23.267c0.813,0,1.63,0.05,2.443,0.113c12.262,1.157,21.98,10.892,23.152,23.153
				l13.828,146.222c16.499,12.344,26.433,31.761,26.433,52.452h152.235c5.61,0,10.959-2.365,14.724-6.506
				c3.768-4.127,5.625-9.684,5.103-15.263C474.503,255.975,372.237,160.674,247.704,160.674z"/>
			<path d="M272.028,356.007l-14.573-153.808c-0.427-4.594-4.077-8.395-8.839-8.834c-0.327-0.032-0.622-0.051-0.944-0.051
				c-4.989,0-9.261,3.801-9.751,8.885l-14.546,153.82c-15.227,8.531-25.627,24.656-25.627,43.354
				c0,27.591,22.368,49.957,49.957,49.957s49.957-22.366,49.957-49.957C297.66,380.676,287.259,364.551,272.028,356.007z"/>
		</g>
	</g>
</g>
<g>
</g>
<g>
</g>
<g>
</g>
<g>
</g>
<g>
</g>
<g>
</g>
<g>
</g>
<g>
</g>
<g>
</g>
<g>
</g>
<g>
</g>
<g>
</g>
<g>
</g>
<g>
</g>
<g>
</g>
</svg>
