<?xml version="1.0" encoding="UTF-8"?>
<!DOCTYPE svg PUBLIC "-//W3C//DTD SVG 1.1//EN" "http://www.w3.org/Graphics/SVG/1.1/DTD/svg11.dtd">
<!-- Creator: CorelDRAW X8 -->
<svg xmlns="http://www.w3.org/2000/svg" xml:space="preserve" width="49.14mm" height="23.2435mm" version="1.1" style="shape-rendering:geometricPrecision; text-rendering:geometricPrecision; image-rendering:optimizeQuality; fill-rule:evenodd; clip-rule:evenodd"
viewBox="0 0 4849 2293"
 xmlns:xlink="http://www.w3.org/1999/xlink">
 <defs>
  <style type="text/css">
   <![CDATA[
    .fil0 {fill:#84B02C}
    .fil2 {fill:#FEFEFE}
    .fil1 {fill:white}
    .fil3 {fill:white;fill-rule:nonzero}
   ]]>
  </style>
 </defs>
 <g id="Слой_x0020_1">
  <metadata id="CorelCorpID_0Corel-Layer"/>
  <g id="_854052080">
   <path class="fil0" d="M158 550l1324 -160c3,-15 7,-30 12,-43 99,-287 388,-336 618,-331 16,102 7,206 -28,301l2607 -316c87,-11 158,52 158,138l0 1024c0,86 -71,166 -158,177l-4533 549c-87,10 -158,-52 -158,-139l0 -1024c0,-86 71,-165 158,-176z"/>
   <path class="fil1" d="M568 703c24,-3 37,7 37,30l0 72c0,25 -12,38 -36,41l-36 5c-25,3 -37,16 -37,39l0 720c0,23 -12,37 -35,40l-72 9c-24,3 -36,-8 -36,-32l0 -719c0,-24 -13,-34 -36,-32l-35 4c-24,3 -37,-6 -37,-31l0 -71c0,-25 12,-38 36,-41l143 -17 144 -17zm3928 459c-24,3 -36,-8 -36,-32l0 -72c0,-25 12,-37 36,-40l72 -9c23,-3 35,8 35,31l0 72c0,24 -12,38 -35,41l-72 9zm17 -218c-25,3 -39,-9 -40,-36l-10 -201c-2,-54 -3,-93 -3,-117l0 -323c0,-24 12,-37 36,-40l72 -9c23,-3 35,7 35,31l0 324c0,24 -1,63 -3,117l-9 203c-2,28 -16,43 -41,46l-37 5zm-470 -626c0,-25 11,-38 35,-40l180 -22c95,-12 144,30 144,126l0 358c0,96 -49,149 -144,161l-36 4c-24,3 -36,17 -36,43l0 214c0,24 -12,38 -36,41l-72 9c-24,3 -35,-8 -35,-32l0 -862zm179 86c-23,3 -35,16 -35,39l0 288c0,23 12,33 35,31 25,-3 37,-17 37,-39l0 -289c0,-23 -12,-33 -37,-30zm-595 72c0,-96 48,-150 143,-161l72 -9c96,-12 144,31 144,126l0 647c0,95 -48,150 -144,162l-72 8c-95,11 -143,-30 -143,-126l0 -647zm179 -22c-24,3 -36,16 -36,41l0 575c0,24 12,33 36,31 23,-3 36,-16 36,-40l0 -575c0,-24 -13,-35 -36,-32zm-453 342l0 324c0,24 12,35 35,32 25,-3 37,-17 37,-42l0 -322c0,-24 -12,-35 -37,-32 -23,3 -35,16 -35,40zm38 -293c-24,3 -37,17 -37,42l0 35c0,24 12,35 34,32l37 -4c96,-12 144,31 144,126l0 396c0,96 -48,149 -144,161l-179 22c-24,3 -36,-8 -35,-32l0 -862c-1,-25 11,-38 34,-41l289 -34c24,-3 36,8 36,31l0 71c0,24 -12,37 -36,40l-143 17zm-454 703c0,96 -48,150 -145,162l-177 21c-26,3 -38,-7 -37,-32l0 -862c-1,-24 11,-37 36,-40l73 -9c23,-3 34,7 35,32l0 107c0,24 12,35 35,32l35 -4c97,-12 145,31 145,126l0 467zm-180 -445c-24,3 -36,16 -36,39l0 396c0,24 12,35 36,32 24,-3 35,-17 35,-41l0 -394c0,-24 -11,-35 -35,-32zm361 -367c24,-3 36,8 36,32l0 862c0,24 -12,37 -36,40l-72 9c-25,2 -36,-8 -36,-31l0 -863c0,-24 11,-38 36,-40l72 -9zm-957 152c0,-25 13,-38 36,-41l180 -21c96,-12 144,29 144,126l0 214c0,48 -13,85 -36,112 23,21 36,56 36,103l0 217c0,96 -48,150 -144,162l-180 22c-23,3 -36,-8 -36,-32l0 -862zm180 479c-24,3 -36,16 -36,41l0 180c0,25 12,35 36,32 24,-3 36,-16 36,-39l0 -182c0,-24 -12,-35 -36,-32zm0 -393c-24,3 -37,16 -37,39l1 180c0,23 12,33 36,30 24,-3 36,-15 36,-39l0 -180c0,-23 -12,-33 -36,-30zm-451 -54l0 863c0,24 -11,37 -34,40l-68 8c-24,3 -35,-8 -35,-31 0,-279 0,-442 0,-493 0,-50 -5,-50 -14,1 -10,53 -41,219 -94,502 -5,26 -20,41 -45,44l-106 13c-24,3 -36,-8 -36,-31l0 -432 0 -432c0,-24 12,-37 35,-40l68 -8c23,-3 34,8 34,32 0,242 0,385 0,429 0,45 4,45 14,-1 10,-46 41,-194 94,-444 4,-22 20,-35 44,-38l107 -13c24,-3 36,7 36,31zm-848 211c0,-96 48,-149 144,-161l72 -9c96,-12 143,31 143,126l0 648c0,95 -47,149 -143,160l-72 9c-96,12 -144,-30 -144,-126l0 -647zm179 -22c-24,3 -36,17 -35,40l-1 576c0,23 12,34 36,31 24,-3 36,-17 37,-40l0 -575c-1,-24 -13,-35 -37,-32zm-596 -35c0,-24 11,-38 36,-41l180 -22c95,-12 143,31 143,127l0 214c0,48 -12,86 -36,112 24,21 36,55 36,104l0 217c0,96 -48,149 -143,161l-180 21c-25,3 -36,-7 -36,-31l0 -862zm179 479c-23,3 -35,17 -35,40l0 182c0,24 12,35 35,32 24,-3 37,-17 37,-41l0 -180c0,-25 -13,-36 -37,-33zm0 -394c-24,3 -36,17 -36,40l1 179c0,24 12,35 35,32 24,-3 37,-17 37,-40l0 -179c0,-24 -13,-35 -37,-32z"/>
   <path class="fil2" d="M1583 502c-20,-179 121,-367 420,-373 1,257 -196,387 -353,385 33,-80 101,-174 181,-234 -125,58 -210,165 -248,222z"/>
   <path class="fil3" d="M526 2204l-10 1 0 -144c0,-10 -7,-16 -16,-15l-66 8c-9,1 -17,9 -17,18 0,112 -28,148 -28,148 -10,1 -17,9 -17,18l0 41c0,8 7,15 17,14 9,-1 16,-9 16,-18l0 -24 104 -13 0 24c0,10 7,16 17,15 9,-1 16,-9 16,-19l0 -40c0,-9 -7,-15 -16,-14l0 0zm-75 -120l32 -4 0 129 -58 6c0,0 26,-35 26,-131zm179 111c-22,3 -37,-10 -37,-63 0,-54 15,-69 37,-72 21,-3 36,9 36,63 0,53 -15,69 -36,72zm0 32c40,-5 70,-37 70,-108 0,-71 -30,-97 -70,-93 -41,5 -70,38 -70,110 0,71 29,96 70,91zm139 -117c0,-52 14,-69 36,-72 13,-1 24,9 26,16 0,0 4,9 15,7 9,-1 15,-9 15,-18 0,-8 -1,-11 -1,-11 -7,-16 -23,-31 -55,-27 -40,5 -69,38 -69,109 0,72 29,98 69,93 33,-4 50,-23 58,-44 0,0 2,-4 2,-12 0,-9 -7,-14 -15,-14 -12,1 -15,11 -15,11 -4,11 -15,24 -30,25 -22,3 -36,-10 -36,-63l0 0zm111 -94c0,10 7,16 17,15l29 -4 0 145c0,9 7,15 16,14 9,-1 17,-9 17,-18l0 -145 29 -3c10,-1 16,-10 16,-19 0,-9 -6,-15 -16,-14l-91 11c-10,1 -17,9 -17,18zm229 95c0,0 -15,27 -36,30 -15,2 -26,-7 -26,-26 0,-18 11,-31 29,-33 18,-2 33,2 33,2l0 27zm33 -84c0,-37 -26,-59 -63,-54 -19,2 -38,15 -38,15 0,0 -11,6 -11,16 0,9 7,15 15,14 5,0 9,-3 9,-3 0,0 13,-9 25,-10 17,-2 30,9 30,26l0 20c0,0 -15,-3 -33,-1 -37,4 -63,32 -63,69 0,40 22,60 52,56 29,-3 44,-29 44,-29l0 3c0,10 7,16 16,15 10,-1 17,-9 17,-19l0 -118zm131 6c0,0 23,-14 23,-40 0,-25 -23,-44 -56,-40 -14,2 -29,7 -29,7 -11,3 -18,12 -18,21l0 158c0,9 7,16 16,15l4 -1c64,-7 96,-44 96,-75 0,-38 -36,-45 -36,-45l0 0zm-11 -32c0,11 -11,24 -36,27l0 -39c0,0 7,-2 14,-3 15,-2 22,4 22,15zm-36 60l18 -2c22,-3 33,6 33,19 0,17 -15,33 -51,41l0 -58zm182 -52l-29 4 0 -57c0,-9 -7,-15 -16,-14 -9,1 -17,9 -17,18l0 161c0,10 8,16 17,15 9,-1 16,-9 16,-19l0 -71 29 -3 32 73c0,0 4,10 14,9 9,-1 16,-10 16,-19 0,-4 -1,-9 -1,-9l-33 -75 27 -67c0,0 2,-5 2,-9 0,-9 -8,-16 -16,-15 -11,1 -15,13 -15,13l-26 65zm178 45c0,0 -15,27 -37,30 -15,1 -25,-8 -25,-26 0,-18 10,-31 29,-33 18,-2 33,1 33,1l0 28zm33 -84c0,-37 -25,-59 -62,-56 -21,3 -38,16 -38,16 0,0 -12,7 -12,16 0,9 8,16 15,15 5,-1 9,-3 9,-3 0,0 13,-9 26,-10 16,-2 29,9 29,26l0 19c0,0 -15,-4 -33,-1 -36,4 -62,33 -62,70 0,40 22,59 51,56 29,-4 44,-30 44,-30l0 4c0,9 8,16 16,15 9,-1 17,-10 17,-19l0 -118zm151 0c-9,1 -16,9 -16,18 0,9 7,15 16,14l8 -1c18,-2 29,8 29,24 0,17 -11,29 -29,32 -15,1 -26,-8 -30,-19 0,0 -3,-9 -14,-7 -9,1 -16,9 -16,18 0,8 1,11 1,11 10,18 26,33 59,29 37,-4 62,-33 62,-64 0,-38 -29,-45 -29,-45 0,0 25,-15 25,-46 0,-29 -23,-50 -58,-46 -31,4 -47,23 -55,39 0,0 -2,4 -2,12 0,9 8,15 17,14 10,-1 14,-11 14,-11 2,-7 13,-20 26,-21 15,-2 26,8 26,21 0,12 -11,25 -26,27l-8 1zm234 55l-9 1 0 -144c0,-9 -7,-16 -17,-15l-65 8c-9,2 -17,10 -17,19 0,111 -29,148 -29,148 -9,1 -16,9 -16,19l0 39c0,10 7,16 16,15 10,-1 17,-9 17,-19l0 -24 104 -11 0 23c0,9 7,15 16,14 10,-1 17,-9 17,-18l0 -40c0,-9 -7,-16 -17,-15l0 0zm-75 -118l34 -4 0 127 -59 8c0,0 25,-37 25,-131zm180 109c-22,3 -37,-10 -37,-63 0,-53 15,-69 37,-72 21,-3 36,10 36,63 0,53 -15,70 -36,72zm0 34c40,-5 69,-39 69,-110 0,-71 -29,-97 -69,-92 -41,5 -69,38 -69,109 0,71 28,98 69,93zm146 -46c0,0 14,22 44,19 33,-4 62,-37 62,-107 0,-69 -29,-94 -62,-90 -30,3 -44,28 -44,28l0 -4c0,-9 -7,-14 -16,-13 -10,1 -17,8 -17,17l0 223c0,10 7,16 17,15 9,-1 16,-9 16,-19l0 -69zm0 -115c0,0 14,-28 36,-30 23,-3 37,10 37,61 0,52 -14,69 -37,70 -22,3 -36,-20 -36,-20l0 -81zm212 84c-22,3 -37,-10 -37,-63 0,-53 15,-70 37,-72 22,-2 36,10 36,63 0,53 -14,70 -36,72zm0 33c40,-5 70,-37 70,-109 0,-71 -30,-97 -70,-92 -41,5 -69,37 -69,109 0,72 28,97 69,92zm194 -140c0,0 22,-14 22,-39 0,-26 -22,-46 -55,-42 -15,2 -29,8 -29,8 -12,3 -19,11 -19,20l0 160c0,9 7,15 17,14l3 0c64,-8 98,-45 98,-76 0,-39 -37,-45 -37,-45l0 0zm-12 -31c0,10 -10,22 -36,25l0 -38c0,0 8,-2 15,-3 14,-2 21,4 21,16zm-36 59l19 -3c21,-2 32,7 32,20 0,16 -15,33 -51,41l0 -58zm183 39c-22,3 -36,-10 -36,-63 0,-53 14,-69 36,-72 22,-3 37,11 37,63 0,53 -15,70 -37,72zm0 34c40,-5 69,-39 69,-110 0,-71 -29,-96 -69,-91 -40,4 -70,37 -70,108 0,71 30,98 70,93zm215 -207c0,-9 -6,-16 -15,-15l-70 9c-9,1 -17,9 -17,17l0 161c0,10 8,16 17,15 9,-1 16,-9 16,-19l0 -144 54 -6c9,-2 15,-10 15,-18zm84 138c-21,2 -36,-11 -36,-63 0,-54 15,-70 36,-72 23,-3 38,9 38,63 0,52 -15,69 -38,72zm0 32c41,-5 70,-37 70,-108 0,-72 -29,-98 -70,-93 -39,5 -69,37 -69,110 0,71 30,96 69,91zm300 -217c0,-9 -7,-16 -15,-15l-92 11c-9,2 -17,10 -17,19l0 161c0,9 8,16 17,15 9,-1 17,-10 17,-19l0 -144 58 -7 0 144c0,9 7,16 17,15 8,-1 15,-10 15,-19l0 -161zm180 -22c0,-8 -8,-15 -17,-14 -7,1 -13,8 -16,14l-62 116 0 -104c0,-10 -8,-15 -17,-14 -8,1 -16,8 -16,18l0 161c0,9 8,16 16,14 7,-1 13,-7 17,-13l62 -116 0 103c0,9 7,16 16,15 9,-1 17,-10 17,-19l0 -161zm30 -3c0,9 6,15 15,14l30 -3 0 144c0,9 7,16 17,15 9,-2 15,-10 15,-18l0 -145 30 -4c9,0 17,-8 17,-18 0,-9 -8,-15 -17,-14l-92 11c-9,1 -15,9 -15,18zm227 95c0,0 -14,27 -36,30 -15,2 -26,-8 -26,-26 0,-19 11,-30 30,-33 18,-2 32,2 32,2l0 27zm33 -85c0,-36 -25,-59 -62,-54 -20,2 -38,16 -38,16 0,0 -11,6 -11,16 0,9 7,15 14,15 6,-1 10,-3 10,-3 0,0 12,-9 25,-11 17,-2 29,9 29,25l0 21c0,0 -14,-4 -32,-2 -37,4 -62,34 -62,70 0,40 21,59 51,55 29,-3 43,-28 43,-28l0 4c0,9 8,15 17,14 9,-1 16,-9 16,-18l0 -120zm176 -63c0,-9 -7,-16 -16,-15 -10,2 -17,10 -17,19l0 53 -58 7 0 -53c0,-9 -8,-16 -17,-14 -9,1 -17,9 -17,18l0 161c0,10 8,16 17,15 9,-1 17,-9 17,-19l0 -75 58 -7 0 75c0,9 7,16 17,15 9,-1 16,-10 16,-19l0 -161zm179 -21c0,-9 -8,-16 -17,-14 -6,0 -12,7 -15,13l-62 116 0 -104c0,-8 -8,-15 -17,-14 -9,1 -17,9 -17,18l0 161c0,9 8,16 17,15 7,-1 13,-8 17,-14l62 -116 0 103c0,10 7,16 15,15 9,-1 17,-9 17,-19l0 -160zm77 29c0,-15 11,-27 33,-29 11,-2 19,-1 19,-1l0 61c-37,0 -52,-13 -52,-31zm-36 118c0,0 -2,5 -2,9 0,9 7,15 16,14 11,-1 14,-13 14,-13l26 -69c0,0 15,4 34,4l0 53c0,9 6,15 16,14 9,-1 16,-8 16,-19l0 -158c0,-9 -8,-15 -19,-16 0,0 -15,-2 -32,0 -41,5 -66,34 -66,67 0,31 22,44 22,44l-25 70z"/>
  </g>
 </g>
</svg>
