<?xml version="1.0" encoding="UTF-8"?>
<!DOCTYPE svg PUBLIC "-//W3C//DTD SVG 1.1//EN" "http://www.w3.org/Graphics/SVG/1.1/DTD/svg11.dtd">
<!-- Creator: CorelDRAW X8 -->
<svg xmlns="http://www.w3.org/2000/svg" xml:space="preserve" width="33.27mm" height="27.8311mm" version="1.1" style="shape-rendering:geometricPrecision; text-rendering:geometricPrecision; image-rendering:optimizeQuality; fill-rule:evenodd; clip-rule:evenodd"
viewBox="0 0 230 192"
 xmlns:xlink="http://www.w3.org/1999/xlink">
 <defs>
  <style type="text/css">
   <![CDATA[
    .fil0 {fill:#84B02C}
    .fil1 {fill:white}
    .fil3 {fill:#FEFEFE;fill-rule:nonzero}
    .fil2 {fill:white;fill-rule:nonzero}
   ]]>
  </style>
 </defs>
 <g id="Слой_x0020_1">
  <metadata id="CorelCorpID_0Corel-Layer"/>
  <g id="_854061680">
   <path class="fil0" d="M220 76l-72 9c-1,0 -2,0 -3,-1 -1,-1 -2,-2 -2,-4l0 -56c4,-7 5,-14 4,-22 0,-1 -1,-1 -2,-1 -15,-2 -35,-1 -40,19l-99 12c-3,0 -6,3 -6,7l0 79c0,4 3,6 6,6l15 -2c1,0 3,0 4,1 1,1 1,3 1,4l0 60c0,3 3,6 7,5l187 -22c4,-1 7,-4 7,-8l0 -80c0,-3 -3,-6 -7,-6z"/>
   <path class="fil1" d="M36 40c2,0 3,1 3,3l0 5c0,1 -1,2 -3,3l-2 0c-2,0 -3,1 -3,3l0 51c0,1 -1,2 -2,2l-5 1c-2,0 -3,-1 -3,-2l0 -51c0,-2 -1,-2 -3,-2l-2 0c-2,0 -3,0 -3,-2l0 -5c0,-2 1,-3 3,-3l10 -1 10 -2zm94 -4l0 57c0,1 -1,2 -3,2l-5 1c-1,0 -2,-1 -2,-2 0,-20 0,-31 0,-35 0,-4 0,-4 -1,0 -1,4 -3,16 -7,36 0,1 -1,2 -3,3l-7 0c-2,1 -3,0 -3,-2l0 -30 0 -31c0,-1 1,-2 3,-3l4 0c2,0 3,0 3,2 0,17 0,27 0,31 0,3 0,3 1,-1 0,-2 2,-11 5,-26 5,1 10,0 15,-2zm-60 10c0,-6 3,-10 10,-11l5 0c7,-1 10,2 10,8l0 46c0,7 -3,11 -10,12l-5 0c-7,1 -10,-2 -10,-9l0 -46zm12 -1c-1,0 -2,1 -2,3l0 40c0,2 1,3 2,3 2,-1 3,-1 3,-3l0 -41c0,-1 -1,-2 -3,-2zm-42 -2c0,-2 1,-3 3,-3l12 -2c7,-1 11,2 11,9l0 15c0,4 -1,6 -3,8 2,2 3,4 3,7l0 16c0,7 -4,10 -11,11l-12 2c-2,0 -3,-1 -3,-3l0 -60zm13 33c-2,1 -3,2 -3,3l0 13c0,2 1,2 3,2 2,0 2,-1 2,-3l0 -12c0,-2 0,-3 -2,-3zm0 -27c-2,0 -3,1 -3,2l0 13c0,2 1,2 3,2 2,0 2,-1 2,-3l0 -12c0,-2 0,-3 -2,-2z"/>
   <path class="fil2" d="M40 115c0,-1 1,-2 3,-3l12 -1c7,-1 10,2 10,9l0 15c0,3 0,6 -2,8 2,1 2,4 2,7l0 15c0,7 -3,11 -10,12l-12 1c-2,1 -3,0 -3,-2l0 -61zm13 34c-2,0 -3,1 -3,3l0 13c0,2 1,2 3,2 1,0 2,-1 2,-3l0 -13c0,-1 -1,-2 -2,-2zm0 -28c-2,1 -3,1 -3,3l0 13c0,2 1,2 3,2 1,0 2,-1 2,-3l0 -12c0,-2 -1,-3 -2,-3zm42 41c0,7 -3,11 -10,11l-13 2c-2,0 -2,-1 -2,-2l0 -61c0,-2 0,-3 2,-3l5 -1c2,0 3,1 3,2l0 8c0,2 1,2 2,2l3 0c7,-1 10,2 10,9l0 33zm-13 -32c-2,1 -2,2 -2,3l0 28c0,2 0,3 2,2 2,0 3,-1 3,-2l0 -28c0,-2 -1,-3 -3,-3zm26 -25c1,-1 2,0 2,2l0 61c0,1 -1,2 -2,3l-5 0c-2,0 -3,0 -3,-2l0 -61c0,-2 1,-3 3,-3l5 0zm16 28l0 23c0,2 1,2 3,2 2,0 2,-1 2,-3l0 -23c0,-1 0,-2 -2,-2 -2,0 -3,1 -3,3zm3 -21c-2,1 -3,1 -3,3l0 3c0,1 1,2 3,2l2 0c7,-1 11,2 11,9l0 28c0,6 -4,10 -11,11l-12 1c-2,1 -3,0 -3,-2l0 -61c0,-1 1,-2 3,-3l20 -2c2,0 3,1 3,2l0 5c0,2 -1,3 -3,3l-10 1zm17 -2c0,-6 3,-10 10,-11l5 -1c7,-1 10,2 10,9l0 46c0,7 -3,11 -10,11l-5 1c-7,1 -10,-2 -10,-9l0 -46zm12 -1c-1,0 -2,1 -2,3l0 40c0,2 1,3 2,2 2,0 3,-1 3,-2l0 -41c0,-2 -1,-2 -3,-2zm17 -10c0,-2 1,-3 3,-3l12 -1c7,-1 10,2 10,9l0 25c0,7 -3,11 -10,11l-2 1c-2,0 -3,1 -3,3l0 15c0,2 -1,2 -2,3l-5 0c-2,1 -3,0 -3,-2l0 -61zm13 6c-2,0 -3,1 -3,3l0 20c0,2 1,3 3,3 2,-1 2,-2 2,-3l0 -21c0,-1 0,-2 -2,-2zm19 54c-2,0 -2,-1 -2,-2l0 -6c0,-1 0,-2 2,-2l5 -1c2,0 3,0 3,2l0 5c0,2 -1,3 -3,3l-5 1zm1 -16c-1,1 -3,0 -3,-2l0 -14c0,-4 0,-7 0,-9l0 -22c0,-2 0,-3 2,-3l5 -1c2,0 3,1 3,2l0 23c0,2 0,5 -1,8l0 15c0,2 -1,3 -3,3l-3 0z"/>
   <path class="fil1" d="M111 29c-1,-12 8,-23 28,-21 0,17 -13,24 -23,23 2,-6 7,-11 12,-15 -8,3 -14,10 -17,13z"/>
   <path class="fil3" d="M164 36l0 0 0 -7c0,-1 -1,-1 -1,-1l-3 0c-1,0 -1,1 -1,1 0,6 -2,8 -2,8 0,0 0,0 0,1l0 2c0,0 0,0 0,0 1,0 1,0 1,-1l0 -1 5 0 0 1c0,0 1,1 1,0 1,0 1,0 1,0l0 -3c0,0 0,0 -1,0l0 0zm-4 -6l2 0 0 6 -3 0c0,0 1,-1 1,-6zm9 5c-1,0 -1,0 -1,-3 0,-3 0,-3 1,-3 2,-1 2,0 2,3 0,2 0,3 -2,3zm0 2c3,0 4,-2 4,-6 0,-3 -1,-4 -4,-4 -2,0 -3,2 -3,5 0,4 1,5 3,5zm7 -6c0,-3 1,-3 2,-4 1,0 1,1 2,1 0,0 0,1 0,1 1,0 1,-1 1,-1 0,-1 0,-1 0,-1 0,-1 -1,-1 -3,-1 -2,0 -3,2 -3,5 0,4 1,5 3,5 2,0 3,-1 3,-2 0,0 0,-1 0,-1 0,0 0,-1 0,-1 -1,0 -1,1 -1,1 0,1 -1,1 -2,1 -1,0 -2,0 -2,-3l0 0zm6 -5c0,1 0,1 1,1l1 0 0 7c0,1 1,1 1,1 1,0 1,-1 1,-1l0 -7 2 0c0,-1 0,-1 0,-1 0,-1 0,-1 0,-1l-5 0c-1,0 -1,1 -1,1zm12 5c0,0 -1,2 -2,2 -1,0 -2,-1 -2,-2 0,-1 1,-1 2,-1 1,0 2,0 2,0l0 1zm1 -4c0,-2 -1,-3 -3,-3 -1,0 -2,1 -2,1 0,0 0,0 0,1 0,0 0,1 0,0 1,0 1,0 1,0 0,0 0,0 1,0 1,0 2,0 2,1l0 1c0,0 -1,0 -2,0 -2,0 -3,2 -3,3 0,3 1,4 2,3 2,0 3,-1 3,-1l0 0c0,0 0,1 0,1 1,0 1,-1 1,-1l0 -6zm7 0c0,0 1,0 1,-2 0,-1 -1,-2 -3,-2 -1,0 -1,1 -1,1 -1,0 -1,0 -1,1l0 8c0,0 0,0 1,0l0 0c3,0 5,-2 5,-4 0,-1 -2,-2 -2,-2l0 0zm-1 -1c0,0 0,1 -2,1l0 -2c0,0 1,0 1,0 1,0 1,0 1,1zm-2 3l1 -1c1,0 2,1 2,1 0,1 -1,2 -3,2l0 -2zm10 -3l-2 0 0 -3c0,0 0,0 -1,0 0,0 -1,0 -1,1l0 8c0,0 1,0 1,0 1,0 1,0 1,-1l0 -3 2 0 1 3c0,0 0,1 1,1 0,0 1,-1 1,-1 0,0 0,-1 0,-1l-2 -3 1 -4c0,0 1,0 1,0 0,-1 -1,-1 -1,-1 -1,0 -1,1 -1,1l-1 3zm9 2c0,0 -1,2 -2,2 -1,0 -2,-1 -2,-2 0,-1 1,-1 2,-1 1,0 2,0 2,0l0 1zm1 -4c0,-2 -1,-3 -3,-3 -1,0 -2,1 -2,1 0,0 0,0 0,1 0,0 0,1 0,1 1,0 1,-1 1,-1 0,0 0,0 1,0 1,0 2,0 2,1l0 1c0,0 -1,0 -2,0 -2,0 -3,2 -3,4 0,2 1,3 2,2 2,0 3,-1 3,-1l0 0c0,1 0,1 0,1 1,0 1,-1 1,-1l0 -6zm-59 24c-1,0 -1,1 -1,1 0,1 0,1 1,1l0 0c1,0 2,0 2,1 0,1 -1,2 -2,2 0,0 -1,-1 -1,-1 0,0 0,-1 -1,-1 0,0 -1,1 -1,1 0,1 0,1 0,1 1,1 2,2 3,1 2,0 3,-1 3,-3 0,-2 -1,-2 -1,-2 0,0 1,-1 1,-2 0,-2 -1,-3 -3,-3 -1,0 -2,1 -2,2 0,0 -1,0 -1,1 0,0 1,1 1,1 1,-1 1,-1 1,-1 0,0 1,-1 1,-1 1,0 2,0 2,1 0,1 -1,1 -2,1l0 0zm12 3l-1 0 0 -7c0,0 0,-1 -1,-1l-3 1c0,0 -1,0 -1,1 0,5 -1,7 -1,7 -1,0 -1,0 -1,1l0 2c0,0 0,1 1,1 0,0 1,-1 1,-1l0 -1 5 -1 0 1c0,1 0,1 1,1 0,0 1,-1 1,-1l0 -2c0,-1 -1,-1 -1,-1l0 0zm-4 -6l2 0 0 6 -3 1c0,0 1,-2 1,-7zm9 6c-1,0 -2,-1 -2,-3 0,-3 1,-4 2,-4 1,0 2,0 2,3 0,3 -1,4 -2,4zm0 1c2,0 3,-1 3,-5 0,-4 -1,-5 -3,-5 -2,0 -4,2 -4,6 0,3 2,5 4,4zm7 -2c0,0 1,1 2,1 2,0 4,-2 4,-5 0,-4 -2,-5 -4,-5 -1,0 -2,2 -2,2l0 -1c0,0 0,0 -1,0 0,0 0,0 0,1l0 11c0,0 0,1 0,1 1,-1 1,-1 1,-1l0 -4zm0 -6c0,0 1,-1 2,-1 1,0 2,0 2,3 0,2 -1,3 -2,3 -1,1 -2,-1 -2,-1l0 -4zm11 5c-1,0 -2,-1 -2,-4 0,-2 1,-3 2,-3 1,0 2,0 2,3 0,3 -1,3 -2,4zm0 1c2,0 3,-2 3,-5 0,-4 -1,-5 -3,-5 -2,0 -4,2 -4,6 0,3 2,4 4,4zm10 -7c0,0 1,-1 1,-2 0,-1 -1,-2 -3,-2 -1,0 -1,0 -1,0 -1,1 -1,1 -1,1l0 9c0,0 0,0 0,0l1 0c3,0 5,-2 5,-4 0,-2 -2,-2 -2,-2l0 0zm-1 -1c0,0 0,1 -2,1l0 -2c0,0 1,0 1,0 1,0 1,0 1,1zm-2 3l1 -1c1,0 2,1 2,1 0,1 -1,2 -3,2l0 -2zm10 2c-2,0 -2,-1 -2,-4 0,-2 0,-3 2,-3 1,0 1,0 1,3 0,3 0,3 -1,4zm0 1c2,0 3,-2 3,-5 0,-4 -1,-5 -3,-5 -2,0 -4,2 -4,6 0,3 2,4 4,4zm10 -10c0,-1 0,-1 0,-1l-4 1c0,0 -1,0 -1,0l0 8c0,1 1,1 1,1 0,0 1,0 1,-1l0 -7 3 0c0,0 0,-1 0,-1zm5 7c-2,0 -2,-1 -2,-3 0,-3 0,-4 2,-4 1,0 1,0 1,3 0,3 0,4 -1,4zm0 1c2,0 3,-2 3,-5 0,-4 -1,-5 -3,-5 -2,1 -4,2 -4,6 0,3 2,5 4,4zm-63 15c0,0 0,-1 -1,-1l-4 1c-1,0 -1,0 -1,1l0 8c0,0 0,1 1,1 0,0 1,-1 1,-1l0 -8 3 0 0 7c0,1 0,1 0,1 1,0 1,0 1,-1l0 -8zm9 -1c0,0 0,-1 -1,-1 0,0 0,1 0,1l-3 6 0 -5c0,-1 -1,-1 -1,-1 -1,0 -1,0 -1,1l0 8c0,0 0,1 1,1 0,0 0,-1 1,-1l3 -6 0 5c0,1 0,1 0,1 1,0 1,0 1,-1l0 -8zm2 0c0,0 0,1 1,1l1 -1 0 8c0,0 0,0 1,0 0,0 1,0 1,-1l0 -7 1 0c1,0 1,0 1,-1 0,0 0,-1 -1,-1l-4 1c-1,0 -1,0 -1,1zm11 5c0,0 0,1 -2,1 0,0 -1,0 -1,-1 0,-1 1,-2 2,-2 1,0 1,0 1,0l0 2zm2 -5c0,-1 -1,-3 -3,-2 -1,0 -2,0 -2,0 0,0 -1,1 -1,1 0,1 1,1 1,1 0,0 0,0 0,0 0,0 1,-1 2,-1 1,0 1,1 1,2l0 1c0,0 0,-1 -1,0 -2,0 -4,1 -4,3 0,2 2,3 3,3 2,0 2,-2 2,-2l0 1c0,0 1,0 1,0 1,0 1,0 1,-1l0 -6zm9 -3c0,0 -1,-1 -1,-1 -1,1 -1,1 -1,1l0 3 -3 0 0 -2c0,-1 0,-1 -1,-1 0,0 -1,0 -1,1l0 8c0,0 1,1 1,1 1,0 1,-1 1,-1l0 -4 3 0 0 3c0,1 0,1 1,1 0,0 1,0 1,-1l0 -8zm9 -1c0,0 -1,-1 -1,-1 0,0 -1,1 -1,1l-3 6 0 -5c0,-1 0,-1 -1,-1 0,0 -1,0 -1,1l0 8c0,0 1,1 1,1 0,0 1,-1 1,-1l3 -6 0 5c0,1 0,1 1,1 0,0 1,0 1,-1l0 -8zm4 2c0,-1 0,-2 1,-2 1,0 1,0 1,0l0 3c-2,0 -2,-1 -2,-1zm-2 6c0,0 0,0 0,0 0,0 0,1 0,1 1,0 1,-1 1,-1l1 -3c0,0 1,0 2,0l0 2c0,1 0,1 1,1 0,0 1,0 1,-1l0 -8c0,0 -1,-1 -1,-1 0,0 -1,0 -2,0 -2,1 -3,2 -3,4 0,1 1,2 1,2l-1 4z"/>
  </g>
 </g>
</svg>
